# xmcd
#
# Track frame offsets:
# 150
# 16090
# 31022
# 46107
# 59682
# 72677
# 84725
# 101022
# 116512
# 128777
# 142317
# 154252
# 168184
# 182332
# 202759
# 218055
# 231717
# 241695
# 259050
# 275090
# 289877
# 302495
# 319212
#
# Disc length: 4436 seconds
#
#
# Revision: 1
# Processed by: cddbd v1.5.1PL2 Copyright (c) Steve Scherf et al.
# Submitted via: FreeRIP 2.945 
#
DISCID=4f115217
DTITLE=Duduca e Dalvan - Dose dupla
DYEAR=1900
DGENRE=Sertanejo
TTITLE0=Anistia de amor
TTITLE1=Quem quer um corpo
TTITLE2=Somos amantes
TTITLE3=Cheiro de homem
TTITLE4=Cartão Vermelho
TTITLE5=Mundo de amor
TTITLE6=Rastros na areia
TTITLE7=Biquini Preto
TTITLE8=Vestido branco
TTITLE9=Madalena
TTITLE10=Amor de caminhoneiro
TTITLE11=Abra essa porta
TTITLE12=Espinheira
TTITLE13=Amigo
TTITLE14=Braços aberto
TTITLE15=No exterior
TTITLE16=Moreninha, moreninha
TTITLE17=Pra não dizer não falei das flores
TTITLE18=Na intimidade
TTITLE19=Foi você
TTITLE20=Um milagre de amor
TTITLE21=A pequitita
TTITLE22=A toalha
EXTD=
EXTT0=
EXTT1=
EXTT2=
EXTT3=
EXTT4=
EXTT5=
EXTT6=
EXTT7=
EXTT8=
EXTT9=
EXTT10=
EXTT11=
EXTT12=
EXTT13=
EXTT14=
EXTT15=
EXTT16=
EXTT17=
EXTT18=
EXTT19=
EXTT20=
EXTT21=
EXTT22=
PLAYORDER=
